<?xml version="1.0" encoding="iso-8859-1"?>
<!-- Generator: Adobe Illustrator 19.0.0, SVG Export Plug-In . SVG Version: 6.00 Build 0)  -->
<svg version="1.1" id="Capa_1" xmlns="http://www.w3.org/2000/svg" xmlns:xlink="http://www.w3.org/1999/xlink" x="0px" y="0px"
	 viewBox="0 0 512.002 512.002" style="enable-background:new 0 0 512.002 512.002;" xml:space="preserve">
<path style="fill:#CCF7F5;" d="M489.874,233.872h-74.577l21.724-21.724c8.64-8.64,8.642-22.652,0-31.293
	c-8.639-8.643-22.652-8.64-31.293,0l-53.019,53.016h-43.285L437.02,106.273c8.642-8.64,8.642-22.652,0-31.293
	c-8.64-8.64-22.652-8.64-31.293,0L278.13,202.577v-43.282l53.02-53.02c8.642-8.64,8.642-22.652,0-31.293
	c-8.64-8.642-22.652-8.642-31.293,0L278.128,96.71V22.128C278.128,9.907,268.221,0,256,0c-12.221,0-22.128,9.907-22.128,22.128
	v74.583l-21.728-21.73c-8.64-8.642-22.652-8.642-31.293,0c-8.642,8.64-8.642,22.652,0,31.293l53.02,53.022v43.282L106.276,74.981
	c-8.64-8.64-22.652-8.64-31.293,0s-8.642,22.653,0,31.293L202.58,233.872h-43.282l-53.02-53.02c-8.64-8.64-22.652-8.64-31.293,0
	s-8.642,22.652,0,31.293l21.728,21.728H22.13c-12.221,0-22.128,9.907-22.128,22.128c0,12.221,9.907,22.128,22.128,22.128h74.58
	l-21.727,21.725c-8.64,8.64-8.642,22.652,0,31.293c4.321,4.322,9.984,6.482,15.646,6.482c5.662,0,11.327-2.161,15.646-6.482
	l53.022-53.019h43.282L74.981,405.727c-8.642,8.64-8.642,22.652,0,31.293c4.321,4.321,9.984,6.482,15.646,6.482
	c5.663,0,11.327-2.161,15.646-6.482l127.597-127.597v43.282l-53.02,53.02c-8.642,8.64-8.642,22.652,0,31.293
	c8.64,8.64,22.652,8.64,31.293,0l21.728-21.728v74.583c0,12.221,9.907,22.128,22.128,22.128c12.221,0,22.128-9.907,22.128-22.128
	v-74.58l21.725,21.727c4.321,4.322,9.984,6.482,15.647,6.482s11.327-2.161,15.646-6.482c8.642-8.64,8.642-22.652,0-31.293
	l-53.019-53.022v-43.282L405.725,437.02c4.321,4.321,9.984,6.482,15.647,6.482s11.327-2.161,15.646-6.482
	c8.642-8.64,8.642-22.652,0-31.293L309.421,278.13h43.279l53.023,53.023c4.321,4.321,9.984,6.481,15.646,6.481
	c5.662,0,11.327-2.161,15.646-6.481c8.642-8.642,8.642-22.653,0-31.293l-21.73-21.73h74.586c12.221,0,22.128-9.907,22.128-22.128
	C512,243.781,502.094,233.872,489.874,233.872z"/>
<path style="fill:#74D6D0;" d="M489.874,233.872h-74.577l21.724-21.724c8.64-8.64,8.642-22.652,0-31.293
	c-8.639-8.643-22.652-8.64-31.293,0l-53.019,53.016h-43.285L437.02,106.273c8.642-8.64,8.642-22.652,0-31.293
	c-8.64-8.64-22.652-8.64-31.293,0L278.13,202.577v-43.282l53.02-53.02c8.642-8.64,8.642-22.652,0-31.293
	c-8.64-8.642-22.652-8.642-31.293,0L278.128,96.71V22.128C278.128,9.907,268.221,0,256,0v512c12.221,0,22.128-9.907,22.128-22.128
	v-74.58l21.725,21.727c4.321,4.322,9.984,6.482,15.647,6.482s11.327-2.161,15.646-6.482c8.642-8.64,8.642-22.652,0-31.293
	l-53.019-53.022v-43.282l127.597,127.597c4.321,4.321,9.984,6.482,15.647,6.482s11.327-2.161,15.646-6.482
	c8.642-8.64,8.642-22.652,0-31.293L309.421,278.128h43.279l53.023,53.023c4.321,4.321,9.984,6.481,15.646,6.481
	c5.662,0,11.327-2.161,15.646-6.481c8.642-8.642,8.642-22.653,0-31.293l-21.73-21.73h74.586c12.221,0,22.128-9.907,22.128-22.128
	C512,243.779,502.094,233.872,489.874,233.872z"/>
<g>
</g>
<g>
</g>
<g>
</g>
<g>
</g>
<g>
</g>
<g>
</g>
<g>
</g>
<g>
</g>
<g>
</g>
<g>
</g>
<g>
</g>
<g>
</g>
<g>
</g>
<g>
</g>
<g>
</g>
</svg>
